<svg width="194" height="40" viewBox="0 0 194 40" fill="none" xmlns="http://www.w3.org/2000/svg">
<path d="M34.8971 24.1625C36.2236 24.1625 37.3004 24.1965 37.3004 24.2299C37.2989 24.2657 37.049 24.7066 36.7497 25.2055C36.4493 25.706 36.0984 26.3074 35.9733 26.5326C35.8479 26.7666 35.498 27.3921 35.1979 27.9174C34.8976 28.4429 34.5137 29.1349 34.3385 29.4604C34.1633 29.7774 33.8294 30.3782 33.6041 30.7953C33.3706 31.204 33.0614 31.7709 32.9196 32.0463C32.7694 32.3216 32.5695 32.689 32.4694 32.8559C32.3776 33.0311 32.2189 33.315 32.1188 33.4818C30.7676 35.9006 30.2837 36.4429 29.1579 36.81C28.382 37.0686 23.5096 37.0608 24.2438 36.8022C24.836 36.5936 25.2535 36.3433 25.5622 36.018C26.1622 35.3717 26.5458 34.6295 26.9967 33.89C27.2051 33.5399 27.3716 33.2399 27.3717 33.223C27.3717 33.2147 27.4471 33.0729 27.568 32.852L28.5114 31.1586C28.6324 30.9375 28.7067 30.7949 28.7067 30.7865C28.7077 30.7603 28.7995 30.6111 28.8991 30.4369C29.0075 30.2701 29.2574 29.8274 29.4577 29.4604C29.6579 29.0933 30.2082 28.1004 30.692 27.2494C31.1754 26.3993 31.609 25.6325 31.6598 25.5395C31.7099 25.4477 31.919 25.0968 32.1276 24.7631L32.5026 24.1625H34.8971Z" fill="url(#paint0_linear_2712_1327)"/>
<path fill-rule="evenodd" clip-rule="evenodd" d="M15.692 3.00527C18.8868 3.0303 19.0959 3.03923 19.5045 3.19766C20.4056 3.5564 20.7317 3.85637 21.4909 5.01602C21.8912 5.6249 22.0744 5.95892 22.8083 7.30996C22.9417 7.56024 23.1257 7.8781 23.2008 8.01992C23.2843 8.15346 23.4425 8.43655 23.5592 8.64492C23.6677 8.85349 23.9016 9.26255 24.0768 9.56289C24.252 9.86323 24.4854 10.2723 24.6022 10.4809C25.0694 11.3151 25.4955 12.041 26.6217 13.9848C26.9552 14.56 27.2964 15.1438 27.3717 15.2943C27.4552 15.4362 27.5052 15.5779 27.4801 15.6029C27.4426 15.6279 26.36 15.6527 25.0612 15.6527H22.6999L22.4918 15.3197C22.3753 15.1366 22.2832 14.9781 22.2829 14.9525C22.2829 14.9359 22.1417 14.6766 21.9665 14.393C21.783 14.1011 21.5404 13.6681 21.4069 13.4428C20.8984 12.5176 20.3318 11.5665 20.2809 11.5648C20.1725 11.5732 20.0476 11.724 19.8307 12.1078C19.6973 12.333 19.4963 12.6912 19.3795 12.8998C19.2711 13.1084 19.1124 13.367 19.029 13.4838C18.9539 13.6006 18.8626 13.751 18.8375 13.8178C18.8042 13.8845 18.6872 14.0932 18.5788 14.2768C18.3202 14.6937 18.1869 14.9274 17.9284 15.4027C17.8199 15.6113 17.4696 16.2291 17.1442 16.7797C15.9679 18.7569 15.7172 19.5661 15.9508 20.5756C16.0677 21.0763 16.7356 22.4194 17.403 23.4955C18.2883 24.8973 19.1057 26.3558 19.9049 27.809C20.0634 28.1176 20.1807 28.2504 20.2975 28.2504C20.323 28.2494 20.6064 27.7915 20.9313 27.225C21.2483 26.6661 21.6486 25.9648 21.8239 25.6645C21.9991 25.3641 22.2334 24.9551 22.3502 24.7465C22.4587 24.538 22.5922 24.3214 22.6422 24.2631C22.7012 24.1881 23.3017 24.1625 25.1276 24.1625C26.4538 24.1625 27.5382 24.1795 27.5387 24.2045C27.5387 24.2295 27.3717 24.5212 27.1715 24.8549C26.7627 25.5306 26.7962 25.4727 25.6032 27.5834C25.1193 28.4343 24.569 29.4273 24.3688 29.7943C24.1686 30.1613 23.8347 30.7782 23.6178 31.1703C23.4009 31.5624 23.117 32.0637 22.9918 32.2973C22.8668 32.5224 22.7003 32.8224 22.6168 32.9643C22.5418 33.0977 22.333 33.473 22.1579 33.7982C21.357 35.2749 20.5639 36.2601 19.9215 36.5688C19.1211 36.9606 19.0031 36.9691 15.3581 36.9691C11.7878 36.9691 11.4874 36.9435 10.82 36.6098C10.4945 36.451 9.80233 35.7924 9.5104 35.3754C9.19338 34.9082 8.30854 33.3897 7.76626 32.3803C7.52437 31.9215 7.29962 31.504 7.26626 31.4623C7.23261 31.4117 7.06527 31.112 6.89028 30.7953C6.58145 30.2194 5.03862 27.4496 4.76333 26.9574C4.67986 26.8155 4.45419 26.4234 4.26235 26.0814C4.062 25.7392 3.46993 24.7219 2.93618 23.8295C1.23426 20.993 1.00063 20.3332 1.29263 19.2152C1.45951 18.5896 1.827 17.8307 2.70278 16.3627C3.48699 15.0529 4.47115 13.3506 5.8727 10.8979C7.1992 8.57022 7.10759 8.737 8.26724 6.64297C8.9178 5.46696 9.62692 4.34952 9.92739 4.02383C10.0442 3.89034 10.3359 3.66423 10.5612 3.51406C11.3287 3.02185 11.7127 2.98859 15.692 3.00527ZM15.9342 4.69082C15.4587 4.59906 14.9082 4.6412 14.5495 4.80801C14.1824 4.98321 13.815 5.43369 13.3561 6.26797C13.2059 6.54336 12.9302 7.05203 12.7467 7.39395C12.4793 7.89525 10.7783 10.8812 10.0192 12.1908C9.72719 12.6914 9.24313 13.5341 9.08462 13.8178C8.62579 14.6186 8.18351 15.3694 7.64126 16.2787C6.39 18.3808 6.09836 19.0568 6.09829 19.9076C6.09829 20.7419 6.4399 21.5436 7.64126 23.5375C7.84144 23.8545 8.07544 24.255 8.15884 24.4135C8.25098 24.5726 8.57605 25.1311 8.88442 25.6479C9.42664 26.5821 9.64356 26.9492 10.069 27.725C10.1941 27.9503 10.3188 28.1593 10.3522 28.2094C10.3856 28.2511 10.5443 28.5342 10.7028 28.8344C11.1699 29.6935 11.4456 30.1943 11.6042 30.4613C11.6792 30.5948 11.8875 30.9701 12.0543 31.2787C12.2211 31.5873 12.4386 31.9794 12.5387 32.1547C12.9392 32.8722 13.0979 33.156 13.3649 33.6732C14.0072 34.8995 14.4573 35.2582 15.3415 35.2582C16.0338 35.2582 16.3342 35.1251 16.7262 34.6498C17.0015 34.3078 17.0769 34.1908 17.569 33.2816L17.8024 32.8393L17.611 32.4467C17.5026 32.2217 17.3443 31.9552 17.2692 31.8383C17.1941 31.7215 16.9688 31.3293 16.777 30.9623C16.5768 30.5953 16.2929 30.0697 16.151 29.7943C16.0009 29.519 15.5835 28.7678 15.2165 28.1254C14.8411 27.483 14.4654 26.8239 14.3737 26.6654C14.1817 26.3232 13.6476 25.3888 13.4391 25.0385C13.3636 24.896 12.9885 24.2876 12.6217 23.6791C11.9294 22.553 11.3034 21.3519 11.1198 20.8178C10.9863 20.434 10.9863 19.3822 11.1198 18.9984C11.2699 18.573 11.9209 17.2715 12.2379 16.7709C12.3881 16.5374 12.5797 16.2205 12.6715 16.0619C12.7633 15.9034 13.0812 15.3614 13.3815 14.8441C13.6816 14.3274 14.0227 13.7436 14.1315 13.5512C14.9736 12.0671 15.3911 11.349 15.4333 11.3148C15.4583 11.2898 15.5248 11.1976 15.5749 11.1059C15.6583 10.9557 15.7673 10.7555 16.276 9.85488C16.3761 9.67134 16.5427 9.38742 16.6344 9.22891C16.8346 8.9119 16.9767 8.65312 17.4772 7.69375L17.8024 7.07656L17.3268 6.23379C16.7848 5.27487 16.3262 4.7744 15.9342 4.69082Z" fill="url(#paint1_linear_2712_1327)"/>
<path d="M26.6627 3.00527C28.6982 3.02196 28.8656 3.03858 29.3327 3.22207C29.6079 3.32215 29.9996 3.54794 30.1999 3.70645C30.5502 3.9901 31.2603 4.88253 31.4772 5.30801C31.5356 5.4247 31.6433 5.60821 31.7184 5.725C31.7935 5.8418 32.0273 6.26782 32.2526 6.68496C32.4695 7.09368 32.6782 7.4689 32.7116 7.51895C32.745 7.56073 32.8785 7.78638 33.0036 8.01992C33.9128 9.66326 34.5973 10.8645 36.7829 14.6518C37.0582 15.1273 37.2663 15.553 37.2497 15.5863C37.2231 15.6197 36.1473 15.6527 34.8551 15.6527C32.5029 15.6527 32.5027 15.6532 32.3776 15.4613C32.244 15.2442 31.3102 13.6504 31.0182 13.1332C30.9096 12.9327 30.5422 12.3073 30.2086 11.7318C29.8752 11.1566 29.4918 10.4815 29.3581 10.2309C29.2164 9.98086 29.0494 9.68871 28.9909 9.58828C28.8324 9.338 28.3812 8.53648 27.9557 7.76895C26.7963 5.65025 26.0876 4.48209 25.6872 4.04824C25.3701 3.69785 24.7857 3.31393 24.4186 3.20547C24.0937 3.11383 24.0851 3.10554 24.2848 3.04727C24.4016 3.0139 25.4698 2.9886 26.6627 3.00527Z" fill="url(#paint2_linear_2712_1327)"/>
<path fill-rule="evenodd" clip-rule="evenodd" d="M77.2021 14.8242C82.5221 14.8242 86.0224 17.7079 86.0225 22.5518C86.0225 27.3398 82.5501 30.2803 77.2021 30.2803C71.9102 30.2802 68.3828 27.3677 68.3828 22.5518C68.3829 17.7639 71.8823 14.8243 77.2021 14.8242ZM77.2021 17.9043C74.1783 17.9044 72.3868 19.7239 72.3867 22.5518C72.3867 25.3797 74.1783 27.2001 77.2021 27.2002C80.2261 27.2002 82.0459 25.3798 82.0459 22.5518C82.0458 19.6959 80.2541 17.9043 77.2021 17.9043Z" fill="#0F172A"/>
<path fill-rule="evenodd" clip-rule="evenodd" d="M155.344 14.8525C158.312 14.8525 160.3 16.0003 161.168 17.6523H161.364L161.476 15.1045H165.256V30H161.28V27.3398H161.084C160.16 29.1318 157.948 30.2803 155.344 30.2803C150.948 30.2802 147.98 27.2557 147.98 22.5518C147.981 17.82 150.948 14.8526 155.344 14.8525ZM156.548 17.9043C153.832 17.9043 151.984 19.556 151.984 22.5518C151.984 25.4637 153.804 27.2285 156.548 27.2285C159.516 27.2285 161.252 25.2962 161.252 22.9443V22.0479C161.252 19.7799 159.516 17.9043 156.548 17.9043Z" fill="#0F172A"/>
<path d="M56.207 9.33594C62.171 9.33594 66.0914 12.1922 66.7354 16.5322H62.5918C62.0038 14.1802 59.483 12.6396 56.207 12.6396C51.8112 12.6398 49.0117 15.2164 49.0117 19.7803C49.0119 24.372 51.8113 26.9481 56.207 26.9482C59.567 26.9482 62.0871 25.4079 62.6191 23H66.7354C66.1753 27.396 61.891 30.252 56.207 30.252C49.1234 30.2518 44.839 26.08 44.8389 19.7803C44.8389 13.4804 49.1232 9.33606 56.207 9.33594Z" fill="#0F172A"/>
<path fill-rule="evenodd" clip-rule="evenodd" d="M107.142 14.8242C112.658 14.8242 115.905 18.0163 115.569 23.3643H102.41C102.466 25.968 104.314 27.5077 107.31 27.5078C109.522 27.5078 111.285 26.6399 111.733 25.2959H115.514C115.066 28.2638 111.65 30.2518 107.198 30.252C101.85 30.252 98.4065 27.3681 98.4062 22.6084C98.4062 17.7644 101.878 14.8243 107.142 14.8242ZM107.113 17.5957C104.454 17.5679 102.717 18.8845 102.354 21.0684H111.594C111.426 18.8844 109.829 17.5677 107.113 17.5957Z" fill="#0F172A"/>
<path d="M128.613 9.33594C134.577 9.33594 138.498 12.1922 139.142 16.5322H134.998C134.41 14.1802 131.889 12.6396 128.613 12.6396C124.217 12.6398 121.418 15.2164 121.418 19.7803C121.418 24.3719 124.218 26.9481 128.613 26.9482C131.973 26.9482 134.493 25.4079 135.025 23H139.142C138.582 27.396 134.297 30.252 128.613 30.252C121.53 30.2518 117.246 26.08 117.246 19.7803C117.246 13.4804 121.529 9.33607 128.613 9.33594Z" fill="#0F172A"/>
<path d="M96.4775 14.8799C97.0095 14.8799 97.4296 14.9082 97.7656 14.9922V18.5762C97.3456 18.4922 96.8415 18.4355 96.3936 18.4355C93.9857 18.4356 92.4453 19.6682 92.3613 22.4121V30H88.3857V15.1045H91.9697L92.1377 17.5957H92.3057C92.9217 15.9159 94.4617 14.88 96.4775 14.8799Z" fill="#0F172A"/>
<path d="M145.654 30H141.679V9.58789H145.654V30Z" fill="#0F172A"/>
<path d="M174.025 26.6123H174.166L177.189 15.0762H181.277L184.33 26.668H184.414L187.802 15.0762H191.441L186.934 30H182.062L179.178 19.584H179.038L176.182 30H171.366L166.886 15.0762H170.693L174.025 26.6123Z" fill="#0F172A"/>
<defs>
<linearGradient id="paint0_linear_2712_1327" x1="19.2432" y1="3" x2="19.2432" y2="37.0001" gradientUnits="userSpaceOnUse">
<stop stop-color="#00E7D0"/>
<stop offset="1" stop-color="#076BB7"/>
</linearGradient>
<linearGradient id="paint1_linear_2712_1327" x1="19.2432" y1="3" x2="19.2432" y2="37.0001" gradientUnits="userSpaceOnUse">
<stop stop-color="#00E7D0"/>
<stop offset="1" stop-color="#076BB7"/>
</linearGradient>
<linearGradient id="paint2_linear_2712_1327" x1="19.2432" y1="3" x2="19.2432" y2="37.0001" gradientUnits="userSpaceOnUse">
<stop stop-color="#00E7D0"/>
<stop offset="1" stop-color="#076BB7"/>
</linearGradient>
</defs>
</svg>
