<svg width="165" height="34" viewBox="0 0 165 34" fill="none" xmlns="http://www.w3.org/2000/svg">
<path d="M29.6796 20.5379C30.8078 20.5379 31.7237 20.5668 31.7237 20.5952C31.7223 20.6257 31.5098 21.0004 31.2552 21.4245C30.9998 21.8499 30.7013 22.3611 30.5949 22.5525C30.4883 22.7514 30.1907 23.2831 29.9354 23.7296C29.68 24.1762 29.3535 24.7645 29.2045 25.0411C29.0555 25.3106 28.7715 25.8213 28.5799 26.1758C28.3813 26.5232 28.1183 27.0051 27.9977 27.2391C27.87 27.4732 27.6999 27.7855 27.6148 27.9273C27.5367 28.0762 27.4018 28.3175 27.3166 28.4594C26.1674 30.5153 25.7559 30.9763 24.7983 31.2883C24.1384 31.5081 19.9944 31.5015 20.6188 31.2816C21.1225 31.1044 21.4776 30.8916 21.7401 30.6151C22.2504 30.0658 22.5767 29.4349 22.9602 28.8063C23.1375 28.5087 23.2791 28.2537 23.2792 28.2394C23.2792 28.2323 23.3433 28.1118 23.4461 27.924L24.2484 26.4846C24.3514 26.2966 24.4146 26.1754 24.4146 26.1683C24.4154 26.1461 24.4935 26.0192 24.5782 25.8712C24.6704 25.7294 24.883 25.3531 25.0533 25.0411C25.2236 24.7291 25.6916 23.8851 26.1031 23.1618C26.5143 22.4392 26.883 21.7874 26.9262 21.7083C26.9688 21.6303 27.1467 21.3321 27.3241 21.0484L27.643 20.5379H29.6796Z" fill="url(#paint0_linear_7130_7820)"/>
<path fill-rule="evenodd" clip-rule="evenodd" d="M13.3454 2.55429C16.0625 2.57556 16.2404 2.58315 16.588 2.71781C17.3543 3.02274 17.6317 3.27772 18.2774 4.26342C18.6179 4.78097 18.7736 5.06489 19.3978 6.21327C19.5114 6.42601 19.6679 6.69619 19.7317 6.81674C19.8027 6.93025 19.9373 7.17087 20.0366 7.34799C20.1288 7.52527 20.3278 7.87297 20.4768 8.12826C20.6258 8.38355 20.8243 8.73125 20.9236 8.90854C21.321 9.61763 21.6834 10.2346 22.6413 11.8869C22.9249 12.3758 23.2151 12.8721 23.2792 13C23.3501 13.1205 23.3926 13.241 23.3713 13.2623C23.3394 13.2835 22.4187 13.3046 21.314 13.3046H19.3056L19.1287 13.0216C19.0296 12.8659 18.9513 12.7312 18.951 12.7095C18.951 12.6953 18.8309 12.4749 18.6819 12.2338C18.5258 11.9857 18.3195 11.6177 18.206 11.4262C17.7735 10.6397 17.2916 9.83137 17.2483 9.82992C17.1561 9.83701 17.0499 9.96524 16.8654 10.2914C16.7519 10.4829 16.581 10.7873 16.4817 10.9646C16.3894 11.1419 16.2544 11.3617 16.1835 11.461C16.1196 11.5603 16.042 11.6882 16.0207 11.7449C15.9923 11.8016 15.8928 11.979 15.8006 12.135C15.5807 12.4895 15.4673 12.6881 15.2474 13.0921C15.1552 13.2694 14.8572 13.7945 14.5805 14.2625C13.58 15.9432 13.3668 16.631 13.5655 17.4891C13.6649 17.9146 14.233 19.0563 14.8006 19.971C15.5536 21.1625 16.2487 22.4022 16.9285 23.6374C17.0633 23.8997 17.1631 24.0126 17.2624 24.0126C17.2841 24.0118 17.5251 23.6226 17.8015 23.1411C18.0711 22.666 18.4116 22.0699 18.5606 21.8146C18.7096 21.5593 18.909 21.2116 19.0083 21.0343C19.1005 20.8571 19.2141 20.673 19.2566 20.6234C19.3068 20.5597 19.8176 20.5379 21.3705 20.5379C22.4984 20.5379 23.4208 20.5524 23.4212 20.5736C23.4212 20.5949 23.2792 20.8428 23.1089 21.1265C22.7612 21.7009 22.7896 21.6516 21.775 23.4457C21.3634 24.169 20.8954 25.013 20.7251 25.325C20.5549 25.6369 20.2709 26.1613 20.0864 26.4946C19.9019 26.8279 19.6604 27.2539 19.554 27.4525C19.4476 27.6438 19.306 27.8989 19.235 28.0194C19.1712 28.1328 18.9937 28.4518 18.8447 28.7283C18.1635 29.9835 17.489 30.8209 16.9426 31.0832C16.2618 31.4163 16.1615 31.4236 13.0613 31.4236C10.0248 31.4236 9.76925 31.4017 9.20162 31.1181C8.92481 30.9832 8.33611 30.4234 8.08781 30.0689C7.81818 29.6718 7.06561 28.3811 6.6044 27.523C6.39866 27.1331 6.20751 26.7782 6.17914 26.7428C6.15052 26.6998 6.00819 26.445 5.85936 26.1758C5.59669 25.6863 4.2845 23.332 4.05036 22.9136C3.97936 22.793 3.78743 22.4597 3.62427 22.169C3.45387 21.8781 2.9503 21.0134 2.49634 20.2549C1.04883 17.8438 0.850123 17.283 1.09847 16.3328C1.24041 15.801 1.55297 15.1559 2.29783 13.9081C2.96481 12.7948 3.80185 11.3478 4.9939 9.26298C6.12211 7.28449 6.04419 7.42626 7.03048 5.64633C7.5838 4.64672 8.18692 3.69689 8.44247 3.42006C8.54181 3.3066 8.78994 3.1144 8.98152 2.98676C9.63431 2.56838 9.96093 2.54011 13.3454 2.55429ZM13.5514 3.987C13.147 3.90901 12.6787 3.94483 12.3736 4.08661C12.0614 4.23553 11.7489 4.61844 11.3586 5.32758C11.2309 5.56166 10.9964 5.99403 10.8404 6.28466C10.6129 6.71077 9.16618 9.24879 8.52055 10.362C8.2722 10.7875 7.8605 11.5038 7.72568 11.7449C7.33544 12.4257 6.95927 13.0638 6.49808 13.8367C5.43387 15.6235 5.18582 16.1981 5.18576 16.9213C5.18576 17.6304 5.47631 18.3118 6.49808 20.0067C6.66834 20.2761 6.86736 20.6166 6.93829 20.7513C7.01665 20.8865 7.29313 21.3612 7.55541 21.8005C8.01657 22.5946 8.20107 22.9066 8.56291 23.5661C8.66934 23.7575 8.77539 23.9352 8.80378 23.9778C8.83215 24.0132 8.9672 24.2539 9.10195 24.509C9.49925 25.2393 9.73375 25.665 9.86858 25.8919C9.93241 26.0053 10.1096 26.3244 10.2515 26.5867C10.3933 26.849 10.5783 27.1823 10.6634 27.3313C11.004 27.9411 11.1391 28.1824 11.3661 28.6221C11.9124 29.6644 12.2952 29.9692 13.0472 29.9693C13.636 29.9693 13.8916 29.8561 14.225 29.4521C14.4591 29.1614 14.5232 29.0619 14.9418 28.2892L15.1403 27.9132L14.9775 27.5795C14.8853 27.3882 14.7507 27.1617 14.6868 27.0623C14.6229 26.9631 14.4313 26.6297 14.2682 26.3178C14.0979 26.0058 13.8564 25.5591 13.7358 25.325C13.608 25.091 13.2531 24.4524 12.9409 23.9064C12.6216 23.3604 12.3022 22.8001 12.2241 22.6654C12.0608 22.3745 11.6066 21.5803 11.4292 21.2825C11.365 21.1614 11.046 20.6442 10.734 20.127C10.1452 19.1699 9.61283 18.1489 9.45661 17.6949C9.34308 17.3687 9.34309 16.4747 9.45661 16.1485C9.58433 15.7868 10.138 14.6805 10.4076 14.2551C10.5353 14.0566 10.6983 13.7872 10.7764 13.6524C10.8545 13.5177 11.1248 13.057 11.3802 12.6173C11.6355 12.1781 11.9256 11.6818 12.0181 11.5183C12.7343 10.2568 13.0894 9.6465 13.1253 9.61742C13.1466 9.59615 13.2032 9.51779 13.2457 9.43979C13.3167 9.31216 13.4094 9.14201 13.8421 8.37646C13.9272 8.22045 14.0689 7.97911 14.1469 7.84438C14.3172 7.57492 14.438 7.35496 14.8637 6.53949L15.1403 6.01488L14.7358 5.29853C14.2748 4.48344 13.8848 4.05804 13.5514 3.987Z" fill="url(#paint1_linear_7130_7820)"/>
<path d="M22.6761 2.55429C24.4073 2.56847 24.5497 2.58259 24.947 2.73856C25.181 2.82363 25.5142 3.01556 25.6845 3.15028C25.9825 3.39139 26.5864 4.14995 26.7709 4.51161C26.8205 4.6108 26.9122 4.76678 26.9761 4.86606C27.0399 4.96533 27.2388 5.32745 27.4304 5.68202C27.6149 6.02944 27.7924 6.34837 27.8208 6.39091C27.8492 6.42643 27.9627 6.61823 28.0691 6.81674C28.8425 8.21357 29.4246 9.23465 31.2835 12.4538C31.5176 12.858 31.6947 13.2198 31.6805 13.2482C31.6579 13.2765 30.7429 13.3046 29.6439 13.3046C27.6433 13.3046 27.6431 13.305 27.5367 13.1419C27.4231 12.9574 26.6289 11.6027 26.3805 11.163C26.2882 10.9926 25.9757 10.461 25.692 9.97187C25.4084 9.48294 25.0823 8.90911 24.9686 8.69604C24.8481 8.48353 24.7061 8.23521 24.6563 8.14984C24.5214 7.9371 24.1377 7.25581 23.7758 6.60341C22.7897 4.80252 22.187 3.80958 21.8464 3.44081C21.5768 3.14297 21.0797 2.81664 20.7675 2.72445C20.4911 2.64656 20.4838 2.63951 20.6537 2.58998C20.753 2.56162 21.6616 2.54011 22.6761 2.55429Z" fill="url(#paint2_linear_7130_7820)"/>
<path fill-rule="evenodd" clip-rule="evenodd" d="M65.6211 12.6006C70.143 12.6006 73.1183 15.0517 73.1184 19.169C73.1184 23.2388 70.1669 25.7382 65.6211 25.7382C61.123 25.7382 58.1247 23.2625 58.1247 19.169C58.1247 15.0993 61.0992 12.6006 65.6211 12.6006ZM65.6211 15.2187C63.0508 15.2187 61.5281 16.7653 61.528 19.169C61.528 21.5727 63.0508 23.1201 65.6211 23.1202C68.1915 23.1202 69.7383 21.5728 69.7383 19.169C69.7382 16.7415 68.2152 15.2187 65.6211 15.2187Z" fill="#0F172A"/>
<path fill-rule="evenodd" clip-rule="evenodd" d="M132.041 12.6247C134.564 12.6247 136.254 13.6003 136.992 15.0045H137.159L137.254 12.8388H140.467V25.5H137.087V23.2389H136.921C136.135 24.7621 134.255 25.7382 132.041 25.7382C128.305 25.7381 125.783 23.1673 125.783 19.169C125.783 15.147 128.305 12.6247 132.041 12.6247ZM133.065 15.2187C130.756 15.2187 129.186 16.6226 129.186 19.169C129.186 21.6442 130.733 23.1442 133.065 23.1442C135.588 23.1442 137.063 21.5018 137.063 19.5027V18.7407C137.063 16.813 135.588 15.2187 133.065 15.2187Z" fill="#0F172A"/>
<path d="M47.7752 7.93555C52.8446 7.93555 56.1769 10.3634 56.7243 14.0524H53.2023C52.7025 12.0532 50.5598 10.7437 47.7752 10.7437C44.0388 10.7438 41.6592 12.9339 41.6592 16.8132C41.6593 20.7162 44.0389 22.9059 47.7752 22.906C50.6312 22.906 52.7733 21.5967 53.2255 19.55H56.7243C56.2483 23.2866 52.6066 25.7142 47.7752 25.7142C41.7541 25.7141 38.1124 22.168 38.1123 16.8132C38.1123 11.4583 41.754 7.93565 47.7752 7.93555Z" fill="#0F172A"/>
<path fill-rule="evenodd" clip-rule="evenodd" d="M91.0696 12.6006C95.7582 12.6006 98.5188 15.3138 98.2332 19.8596H87.0479C87.0956 22.0728 88.666 23.3816 91.2124 23.3816C93.0926 23.3816 94.5918 22.6439 94.9727 21.5015H98.1859C97.8051 24.0242 94.9018 25.714 91.1178 25.7142C86.5721 25.7142 83.6448 23.2629 83.6446 19.2171C83.6446 15.0998 86.5953 12.6006 91.0696 12.6006ZM91.0456 14.9563C88.7848 14.9327 87.3091 16.0518 86.9998 17.9081H94.854C94.7112 16.0517 93.3542 14.9325 91.0456 14.9563Z" fill="#0F172A"/>
<path d="M109.321 7.93555C114.39 7.93555 117.722 10.3634 118.27 14.0524H114.748C114.248 12.0532 112.105 10.7437 109.321 10.7437C105.584 10.7438 103.205 12.9339 103.205 16.8132C103.205 20.7162 105.584 22.9059 109.321 22.906C112.177 22.906 114.319 21.5967 114.771 19.55H118.27C117.794 23.2866 114.152 25.7142 109.321 25.7142C103.299 25.7141 99.6586 22.168 99.6584 16.8132C99.6584 11.4583 103.299 7.93566 109.321 7.93555Z" fill="#0F172A"/>
<path d="M82.0052 12.6479C82.4573 12.6479 82.8145 12.672 83.1 12.7434V15.7897C82.7431 15.7184 82.3146 15.6702 81.9338 15.6702C79.8871 15.6703 78.5778 16.718 78.5064 19.0503V25.5H75.1271V12.8388H78.1735L78.3163 14.9563H78.4591C78.9827 13.5285 80.2917 12.648 82.0052 12.6479Z" fill="#0F172A"/>
<path d="M123.805 25.5H120.426V8.14971H123.805V25.5Z" fill="#0F172A"/>
<path d="M147.921 22.6205H148.04L150.61 12.8147H154.085L156.68 22.6678H156.751L159.631 12.8147H162.724L158.893 25.5H154.752L152.3 16.6464H152.182L149.754 25.5H145.661L141.852 12.8147H145.089L147.921 22.6205Z" fill="#0F172A"/>
<defs>
<linearGradient id="paint0_linear_7130_7820" x1="1.00781" y1="31.4499" x2="25.2893" y2="43.9493" gradientUnits="userSpaceOnUse">
<stop stop-color="#2B7FFF"/>
<stop offset="1" stop-color="#00B8DB"/>
</linearGradient>
<linearGradient id="paint1_linear_7130_7820" x1="1.00781" y1="31.4499" x2="25.2893" y2="43.9493" gradientUnits="userSpaceOnUse">
<stop stop-color="#2B7FFF"/>
<stop offset="1" stop-color="#00B8DB"/>
</linearGradient>
<linearGradient id="paint2_linear_7130_7820" x1="1.00781" y1="31.4499" x2="25.2893" y2="43.9493" gradientUnits="userSpaceOnUse">
<stop stop-color="#2B7FFF"/>
<stop offset="1" stop-color="#00B8DB"/>
</linearGradient>
</defs>
</svg>
